{
  "asset": {
    "version": "2.0",
    "generator": "THREE.GLTFExporter"
  },
  "scenes": [
    {
      "nodes": [
        1
      ],
      "name": "AuxScene"
    }
  ],
  "scene": 0,
  "nodes": [
    {
      "name": "camera2",
      "mesh": 0
    },
    {
      "children": [
        0
      ]
    }
  ],
  "bufferViews": [
    {
      "buffer": 0,
      "byteOffset": 0,
      "byteLength": 784368,
      "target": 34962,
      "byteStride": 12
    },
    {
      "buffer": 0,
      "byteOffset": 784368,
      "byteLength": 784368,
      "target": 34962,
      "byteStride": 12
    },
    {
      "buffer": 0,
      "byteOffset": 1568736,
      "byteLength": 522912,
      "target": 34962,
      "byteStride": 8
    },
    {
      "buffer": 0,
      "byteOffset": 2091648,
      "byteLength": 1440,
      "target": 34963
    },
    {
      "buffer": 0,
      "byteOffset": 2093088,
      "byteLength": 288,
      "target": 34963
    },
    {
      "buffer": 0,
      "byteOffset": 2093376,
      "byteLength": 9888,
      "target": 34963
    },
    {
      "buffer": 0,
      "byteOffset": 2103264,
      "byteLength": 3840,
      "target": 34963
    },
    {
      "buffer": 0,
      "byteOffset": 2107104,
      "byteLength": 12000,
      "target": 34963
    },
    {
      "buffer": 0,
      "byteOffset": 2119104,
      "byteLength": 2700,
      "target": 34963
    },
    {
      "buffer": 0,
      "byteOffset": 2121804,
      "byteLength": 1152,
      "target": 34963
    },
    {
      "buffer": 0,
      "byteOffset": 2122956,
      "byteLength": 2784,
      "target": 34963
    },
    {
      "buffer": 0,
      "byteOffset": 2125740,
      "byteLength": 3600,
      "target": 34963
    },
    {
      "buffer": 0,
      "byteOffset": 2129340,
      "byteLength": 10656,
      "target": 34963
    },
    {
      "buffer": 0,
      "byteOffset": 2139996,
      "byteLength": 768,
      "target": 34963
    },
    {
      "buffer": 0,
      "byteOffset": 2140764,
      "byteLength": 1536,
      "target": 34963
    },
    {
      "buffer": 0,
      "byteOffset": 2142300,
      "byteLength": 7200,
      "target": 34963
    },
    {
      "buffer": 0,
      "byteOffset": 2149500,
      "byteLength": 5952,
      "target": 34963
    },
    {
      "buffer": 0,
      "byteOffset": 2155452,
      "byteLength": 2304,
      "target": 34963
    },
    {
      "buffer": 0,
      "byteOffset": 2157756,
      "byteLength": 288,
      "target": 34963
    },
    {
      "buffer": 0,
      "byteOffset": 2158044,
      "byteLength": 11232,
      "target": 34963
    },
    {
      "buffer": 0,
      "byteOffset": 2169276,
      "byteLength": 336,
      "target": 34963
    },
    {
      "buffer": 0,
      "byteOffset": 2169612,
      "byteLength": 20544,
      "target": 34963
    },
    {
      "buffer": 0,
      "byteOffset": 2190156,
      "byteLength": 2700,
      "target": 34963
    },
    {
      "buffer": 0,
      "byteOffset": 2192856,
      "byteLength": 3840,
      "target": 34963
    },
    {
      "buffer": 0,
      "byteOffset": 2196696,
      "byteLength": 4800,
      "target": 34963
    },
    {
      "buffer": 0,
      "byteOffset": 2201496,
      "byteLength": 20544,
      "target": 34963
    },
    {
      "buffer": 0,
      "byteOffset": 2222040,
      "byteLength": 336,
      "target": 34963
    }
  ],
  "buffers": [
    {
      "byteLength": 2222376,
      "uri": "data:application/octet-stream;base64,"
    }
  ],
  "accessors": [
    {
      "bufferView": 0,
      "componentType": 5126,
      "count": 65364,
      "max": [
        4.1367621421813965,
        4.988433837890625,
        2.4307260513305664
      ],
      "min": [
        -4.688868045806885,
        -1.3042919635772705,
        -3.6386849880218506
      ],
      "type": "VEC3"
    },
    {
      "bufferView": 1,
      "componentType": 5126,
      "count": 65364,
      "max": [
        1,
        1,
        1
      ],
      "min": [
        -1,
        -1,
        -1
      ],
      "type": "VEC3"
    },
    {
      "bufferView": 2,
      "componentType": 5126,
      "count": 65364,
      "max": [
        1,
        1
      ],
      "min": [
        0,
        0
      ],
      "type": "VEC2"
    },
    {
      "bufferView": 3,
      "componentType": 5123,
      "count": 720,
      "max": [
        719
      ],
      "min": [
        0
      ],
      "type": "SCALAR"
    },
    {
      "bufferView": 4,
      "componentType": 5123,
      "count": 144,
      "max": [
        863
      ],
      "min": [
        720
      ],
      "type": "SCALAR"
    },
    {
      "bufferView": 5,
      "componentType": 5123,
      "count": 4944,
      "max": [
        5807
      ],
      "min": [
        864
      ],
      "type": "SCALAR"
    },
    {
      "bufferView": 6,
      "componentType": 5123,
      "count": 1920,
      "max": [
        7727
      ],
      "min": [
        5808
      ],
      "type": "SCALAR"
    },
    {
      "bufferView": 7,
      "componentType": 5123,
      "count": 6000,
      "max": [
        13727
      ],
      "min": [
        7728
      ],
      "type": "SCALAR"
    },
    {
      "bufferView": 8,
      "componentType": 5123,
      "count": 1350,
      "max": [
        15077
      ],
      "min": [
        13728
      ],
      "type": "SCALAR"
    },
    {
      "bufferView": 9,
      "componentType": 5123,
      "count": 576,
      "max": [
        15653
      ],
      "min": [
        15078
      ],
      "type": "SCALAR"
    },
    {
      "bufferView": 10,
      "componentType": 5123,
      "count": 1392,
      "max": [
        17045
      ],
      "min": [
        15654
      ],
      "type": "SCALAR"
    },
    {
      "bufferView": 11,
      "componentType": 5123,
      "count": 1800,
      "max": [
        18845
      ],
      "min": [
        17046
      ],
      "type": "SCALAR"
    },
    {
      "bufferView": 12,
      "componentType": 5123,
      "count": 5328,
      "max": [
        24173
      ],
      "min": [
        18846
      ],
      "type": "SCALAR"
    },
    {
      "bufferView": 13,
      "componentType": 5123,
      "count": 384,
      "max": [
        24557
      ],
      "min": [
        24174
      ],
      "type": "SCALAR"
    },
    {
      "bufferView": 14,
      "componentType": 5123,
      "count": 768,
      "max": [
        25325
      ],
      "min": [
        24558
      ],
      "type": "SCALAR"
    },
    {
      "bufferView": 15,
      "componentType": 5123,
      "count": 3600,
      "max": [
        28925
      ],
      "min": [
        25326
      ],
      "type": "SCALAR"
    },
    {
      "bufferView": 16,
      "componentType": 5123,
      "count": 2976,
      "max": [
        31901
      ],
      "min": [
        28926
      ],
      "type": "SCALAR"
    },
    {
      "bufferView": 17,
      "componentType": 5123,
      "count": 1152,
      "max": [
        33053
      ],
      "min": [
        31902
      ],
      "type": "SCALAR"
    },
    {
      "bufferView": 18,
      "componentType": 5123,
      "count": 144,
      "max": [
        33197
      ],
      "min": [
        33054
      ],
      "type": "SCALAR"
    },
    {
      "bufferView": 19,
      "componentType": 5123,
      "count": 5616,
      "max": [
        38813
      ],
      "min": [
        33198
      ],
      "type": "SCALAR"
    },
    {
      "bufferView": 20,
      "componentType": 5123,
      "count": 168,
      "max": [
        38981
      ],
      "min": [
        38814
      ],
      "type": "SCALAR"
    },
    {
      "bufferView": 21,
      "componentType": 5123,
      "count": 10272,
      "max": [
        49253
      ],
      "min": [
        38982
      ],
      "type": "SCALAR"
    },
    {
      "bufferView": 22,
      "componentType": 5123,
      "count": 1350,
      "max": [
        50603
      ],
      "min": [
        49254
      ],
      "type": "SCALAR"
    },
    {
      "bufferView": 23,
      "componentType": 5123,
      "count": 1920,
      "max": [
        52523
      ],
      "min": [
        50604
      ],
      "type": "SCALAR"
    },
    {
      "bufferView": 24,
      "componentType": 5123,
      "count": 2400,
      "max": [
        54923
      ],
      "min": [
        52524
      ],
      "type": "SCALAR"
    },
    {
      "bufferView": 25,
      "componentType": 5123,
      "count": 10272,
      "max": [
        65195
      ],
      "min": [
        54924
      ],
      "type": "SCALAR"
    },
    {
      "bufferView": 26,
      "componentType": 5123,
      "count": 168,
      "max": [
        65363
      ],
      "min": [
        65196
      ],
      "type": "SCALAR"
    }
  ],
  "materials": [
    {
      "pbrMetallicRoughness": {
        "metallicFactor": 0.5,
        "roughnessFactor": 0.5
      },
      "name": "rsMaterial7SG"
    },
    {
      "pbrMetallicRoughness": {
        "metallicFactor": 0.5,
        "roughnessFactor": 0.5
      },
      "name": "rsMaterial8SG"
    },
    {
      "pbrMetallicRoughness": {
        "metallicFactor": 0.5,
        "roughnessFactor": 0.5
      },
      "name": "rsMaterial11SG"
    },
    {
      "pbrMetallicRoughness": {
        "metallicFactor": 0.5,
        "roughnessFactor": 0.5
      },
      "name": "RouearriereSG"
    },
    {
      "pbrMetallicRoughness": {
        "metallicFactor": 0.5,
        "roughnessFactor": 0.5
      },
      "name": "rsMaterial10SG"
    },
    {
      "pbrMetallicRoughness": {
        "metallicFactor": 0.5,
        "roughnessFactor": 0.5
      },
      "name": "rsMaterial13SG"
    },
    {
      "pbrMetallicRoughness": {
        "metallicFactor": 0.5,
        "roughnessFactor": 0.5
      },
      "name": "rsMaterial9SG"
    },
    {
      "pbrMetallicRoughness": {
        "metallicFactor": 0.5,
        "roughnessFactor": 0.5
      },
      "name": "rsMaterial5SG"
    },
    {
      "pbrMetallicRoughness": {
        "metallicFactor": 0.5,
        "roughnessFactor": 0.5
      },
      "name": "rsMaterial12SG"
    },
    {
      "pbrMetallicRoughness": {
        "metallicFactor": 0.5,
        "roughnessFactor": 0.5
      },
      "name": "rsMaterial4SG"
    },
    {
      "pbrMetallicRoughness": {
        "metallicFactor": 0.5,
        "roughnessFactor": 0.5
      },
      "name": "rsMaterial2SG"
    },
    {
      "pbrMetallicRoughness": {
        "metallicFactor": 0.5,
        "roughnessFactor": 0.5
      },
      "name": "rsMaterial6SG"
    },
    {
      "pbrMetallicRoughness": {
        "metallicFactor": 0.5,
        "roughnessFactor": 0.5
      },
      "name": "rsMaterial3SG"
    }
  ],
  "meshes": [
    {
      "primitives": [
        {
          "mode": 4,
          "attributes": {
            "POSITION": 0,
            "NORMAL": 1,
            "TEXCOORD_0": 2
          },
          "indices": 3,
          "material": 0
        },
        {
          "mode": 4,
          "attributes": {
            "POSITION": 0,
            "NORMAL": 1,
            "TEXCOORD_0": 2
          },
          "indices": 4,
          "material": 1
        },
        {
          "mode": 4,
          "attributes": {
            "POSITION": 0,
            "NORMAL": 1,
            "TEXCOORD_0": 2
          },
          "indices": 5,
          "material": 0
        },
        {
          "mode": 4,
          "attributes": {
            "POSITION": 0,
            "NORMAL": 1,
            "TEXCOORD_0": 2
          },
          "indices": 6,
          "material": 2
        },
        {
          "mode": 4,
          "attributes": {
            "POSITION": 0,
            "NORMAL": 1,
            "TEXCOORD_0": 2
          },
          "indices": 7,
          "material": 3
        },
        {
          "mode": 4,
          "attributes": {
            "POSITION": 0,
            "NORMAL": 1,
            "TEXCOORD_0": 2
          },
          "indices": 8,
          "material": 4
        },
        {
          "mode": 4,
          "attributes": {
            "POSITION": 0,
            "NORMAL": 1,
            "TEXCOORD_0": 2
          },
          "indices": 9,
          "material": 1
        },
        {
          "mode": 4,
          "attributes": {
            "POSITION": 0,
            "NORMAL": 1,
            "TEXCOORD_0": 2
          },
          "indices": 10,
          "material": 5
        },
        {
          "mode": 4,
          "attributes": {
            "POSITION": 0,
            "NORMAL": 1,
            "TEXCOORD_0": 2
          },
          "indices": 11,
          "material": 6
        },
        {
          "mode": 4,
          "attributes": {
            "POSITION": 0,
            "NORMAL": 1,
            "TEXCOORD_0": 2
          },
          "indices": 12,
          "material": 7
        },
        {
          "mode": 4,
          "attributes": {
            "POSITION": 0,
            "NORMAL": 1,
            "TEXCOORD_0": 2
          },
          "indices": 13,
          "material": 1
        },
        {
          "mode": 4,
          "attributes": {
            "POSITION": 0,
            "NORMAL": 1,
            "TEXCOORD_0": 2
          },
          "indices": 14,
          "material": 8
        },
        {
          "mode": 4,
          "attributes": {
            "POSITION": 0,
            "NORMAL": 1,
            "TEXCOORD_0": 2
          },
          "indices": 15,
          "material": 3
        },
        {
          "mode": 4,
          "attributes": {
            "POSITION": 0,
            "NORMAL": 1,
            "TEXCOORD_0": 2
          },
          "indices": 16,
          "material": 9
        },
        {
          "mode": 4,
          "attributes": {
            "POSITION": 0,
            "NORMAL": 1,
            "TEXCOORD_0": 2
          },
          "indices": 17,
          "material": 1
        },
        {
          "mode": 4,
          "attributes": {
            "POSITION": 0,
            "NORMAL": 1,
            "TEXCOORD_0": 2
          },
          "indices": 18,
          "material": 0
        },
        {
          "mode": 4,
          "attributes": {
            "POSITION": 0,
            "NORMAL": 1,
            "TEXCOORD_0": 2
          },
          "indices": 19,
          "material": 1
        },
        {
          "mode": 4,
          "attributes": {
            "POSITION": 0,
            "NORMAL": 1,
            "TEXCOORD_0": 2
          },
          "indices": 20,
          "material": 10
        },
        {
          "mode": 4,
          "attributes": {
            "POSITION": 0,
            "NORMAL": 1,
            "TEXCOORD_0": 2
          },
          "indices": 21,
          "material": 11
        },
        {
          "mode": 4,
          "attributes": {
            "POSITION": 0,
            "NORMAL": 1,
            "TEXCOORD_0": 2
          },
          "indices": 22,
          "material": 4
        },
        {
          "mode": 4,
          "attributes": {
            "POSITION": 0,
            "NORMAL": 1,
            "TEXCOORD_0": 2
          },
          "indices": 23,
          "material": 2
        },
        {
          "mode": 4,
          "attributes": {
            "POSITION": 0,
            "NORMAL": 1,
            "TEXCOORD_0": 2
          },
          "indices": 24,
          "material": 12
        },
        {
          "mode": 4,
          "attributes": {
            "POSITION": 0,
            "NORMAL": 1,
            "TEXCOORD_0": 2
          },
          "indices": 25,
          "material": 11
        },
        {
          "mode": 4,
          "attributes": {
            "POSITION": 0,
            "NORMAL": 1,
            "TEXCOORD_0": 2
          },
          "indices": 26,
          "material": 10
        }
      ]
    }
  ]
}